<svg width="20" height="20" fill="none" xmlns="http://www.w3.org/2000/svg"><path d="M10 3.26c.24 0 .435-.195.435-.434v-.217A.436.436 0 0 0 10 2.174a.436.436 0 0 0-.435.435v.217c0 .24.196.435.435.435ZM10 16.74a.436.436 0 0 0-.435.434v.217c0 .24.196.435.435.435.24 0 .435-.196.435-.435v-.217a.436.436 0 0 0-.435-.435ZM2.826 9.565h-.217a.436.436 0 0 0-.435.435c0 .24.195.435.435.435h.217c.24 0 .435-.196.435-.435a.436.436 0 0 0-.435-.435ZM17.391 9.565h-.217a.436.436 0 0 0-.435.435c0 .24.196.435.435.435h.217c.24 0 .435-.196.435-.435a.436.436 0 0 0-.435-.435ZM5.087 4.478a.42.42 0 0 0-.609 0 .42.42 0 0 0 0 .609l.152.152a.43.43 0 0 0 .305.13.43.43 0 0 0 .304-.13.42.42 0 0 0 0-.608l-.152-.153ZM4.63 14.76l-.152.153a.42.42 0 0 0 0 .609c.087.087.196.13.304.13a.429.429 0 0 0 .305-.13l.152-.152a.42.42 0 0 0 0-.61.42.42 0 0 0-.609 0ZM14.914 4.478l-.153.153a.42.42 0 0 0 0 .608.43.43 0 0 0 .305.13.43.43 0 0 0 .304-.13l.152-.152a.42.42 0 0 0 0-.609.42.42 0 0 0-.608 0ZM10.435 9.826V5.87A.436.436 0 0 0 10 5.435a.436.436 0 0 0-.435.435V10a.43.43 0 0 0 .13.304l4.762 4.761a.43.43 0 0 0 .304.13.43.43 0 0 0 .304-.13.42.42 0 0 0 0-.608l-4.63-4.63Z" fill="#fff"/><path d="M10 0C4.478 0 0 4.478 0 10s4.478 10 10 10 10-4.478 10-10S15.522 0 10 0Zm0 19.13A9.13 9.13 0 0 1 .87 10 9.13 9.13 0 0 1 10 .87 9.13 9.13 0 0 1 19.13 10 9.13 9.13 0 0 1 10 19.13Z" fill="#fff"/></svg>