<svg width="32" height="32" fill="none" xmlns="http://www.w3.org/2000/svg"><g clip-path="url(#a)" fill="#FF9846"><path d="m12.637 10.26-.205.084a1.995 1.995 0 0 0-1.731-1.007H7.537c-1.1 0-1.994.895-1.994 1.994v8.998c0 1.1.895 1.994 1.994 1.994h3.164a1.99 1.99 0 0 0 1.552-.744 8.69 8.69 0 0 0 3.508.744h6.684a2.036 2.036 0 0 0 1.787-3.003 2.036 2.036 0 0 0 .957-2.78 2.036 2.036 0 0 0 1.268-1.883c0-.85-.525-1.58-1.268-1.883a2.036 2.036 0 0 0-1.805-2.967h-3.33a.572.572 0 0 1-.571-.571V7.397a3.328 3.328 0 0 0-3.325-3.324 1.46 1.46 0 0 0-1.457 1.458v1.646c0 1.356-.81 2.566-2.064 3.083ZM10.7 21.073H7.537a.745.745 0 0 1-.744-.744v-8.998c0-.41.334-.744.744-.744h3.164c.41 0 .744.334.744.744v8.998c0 .41-.334.744-.744.744Zm5.25-13.896V5.531c0-.115.093-.208.207-.208 1.144 0 2.075.93 2.075 2.074v1.839c0 1.004.816 1.82 1.82 1.82h3.331a.784.784 0 0 1 0 1.567h-3.9a.625.625 0 0 0 0 1.25h4.94a.784.784 0 0 1 0 1.567h-4.94a.625.625 0 0 0 0 1.25h3.9a.784.784 0 0 1 0 1.566h-3.9a.625.625 0 0 0 0 1.25h2.961a.784.784 0 0 1 0 1.567H15.76a7.432 7.432 0 0 1-3.067-.667l.002-.077v-8.741l.418-.172a4.569 4.569 0 0 0 2.838-4.239Z"/><path d="M26.375 1.25h-7.563a.625.625 0 0 0 0 1.25h7.563a4.38 4.38 0 0 1 4.375 4.375v14.5a4.38 4.38 0 0 1-4.375 4.375h-8.21c-.223 0-.43.12-.541.313L16 28.875l-1.624-2.813a.625.625 0 0 0-.541-.312h-8.21a4.38 4.38 0 0 1-4.375-4.375v-14.5A4.38 4.38 0 0 1 5.625 2.5h7.562a.625.625 0 0 0 0-1.25H5.625A5.631 5.631 0 0 0 0 6.875v14.5A5.631 5.631 0 0 0 5.625 27h7.85l1.984 3.438a.625.625 0 0 0 1.082 0L18.526 27h7.849A5.631 5.631 0 0 0 32 21.375v-14.5a5.631 5.631 0 0 0-5.625-5.625Z"/><path d="M16 2.5a.63.63 0 0 0 .625-.625A.63.63 0 0 0 16 1.25a.63.63 0 0 0-.442.183.63.63 0 0 0-.183.442.63.63 0 0 0 .183.442A.63.63 0 0 0 16 2.5Z"/></g><defs><clipPath id="a"><path fill="#fff" d="M0 0h32v32H0z"/></clipPath></defs></svg>