<svg width="50" height="50" fill="none" xmlns="http://www.w3.org/2000/svg"><path d="M0 25c0 13.807 11.193 25 25 25s25-11.193 25-25S38.807 0 25 0 0 11.193 0 25Z" fill="#61A8DE"/><path d="M38.212 10.12 4.777 23.15c-1.083.422-1.018 1.976.097 2.305l8.496 2.509 3.171 10.061a1.459 1.459 0 0 0 2.434.583l4.393-4.486 8.62 6.327a1.799 1.799 0 0 0 2.824-1.082l5.709-27.292c.279-1.337-1.036-2.45-2.309-1.955Zm-4.192 6.057L18.49 29.911a.834.834 0 0 0-.277.532l-.598 5.315c-.02.173-.262.196-.314.03l-2.46-7.927a.834.834 0 0 1 .357-.957l18.34-11.374c.422-.262.854.318.482.647Z" fill="#fff"/></svg>