<svg width="34" height="34" fill="none" xmlns="http://www.w3.org/2000/svg"><path d="M22.381 27.944a.996.996 0 0 0 1.146-.819l.997-5.977a.996.996 0 1 0-1.965-.327l-.997 5.976a.996.996 0 0 0 .82 1.146ZM10.54 27.125a.996.996 0 0 0 1.964-.328l-.996-5.977a.996.996 0 0 0-1.965.328l.996 5.977Z" fill="#FF9846"/><path d="M33.004 12.02h-3.506l-7.67-9.588a.996.996 0 0 0-1.555 1.245l6.674 8.342H7.053l6.674-8.342a.996.996 0 0 0-1.556-1.245l-7.67 9.588H.997a.996.996 0 0 0-.996.996V17c0 .55.446.996.996.996h1.241L6.015 31.22a.996.996 0 0 0 .958.722h20.054a.996.996 0 0 0 .958-.722l3.778-13.223h1.24c.551 0 .997-.446.997-.996v-3.984a.996.996 0 0 0-.996-.996Zm-6.728 17.93H7.724L4.309 17.995H29.69L26.276 29.95Zm5.732-13.946H1.992v-1.992h30.016v1.992Z" fill="#FF9846"/><path d="M17 27.957c.55 0 .996-.446.996-.996v-5.977a.996.996 0 0 0-1.992 0v5.977c0 .55.446.996.996.996Z" fill="#FF9846"/></svg>