<svg width="50" height="50" fill="none" xmlns="http://www.w3.org/2000/svg"><path d="M0 25c0 13.807 11.193 25 25 25s25-11.193 25-25S38.807 0 25 0 0 11.193 0 25Z" fill="#1BD741"/><path d="m9 42.008 2.45-8.698a17.409 17.409 0 0 1-2.405-8.847C9.045 14.833 16.879 7 26.508 7c9.629 0 17.463 7.834 17.463 17.463 0 9.629-7.834 17.463-17.463 17.463-3 0-5.938-.768-8.537-2.227L9 42.01Zm9.43-5.486.534.327a14.47 14.47 0 0 0 7.544 2.114c7.995 0 14.5-6.505 14.5-14.5 0-7.996-6.505-14.5-14.5-14.5-7.996 0-14.5 6.504-14.5 14.5 0 2.786.791 5.491 2.289 7.824l.36.56-1.41 5.01 5.182-1.335Z" fill="#fff"/><path d="m21.602 16.335-1.133-.062a1.37 1.37 0 0 0-.974.334c-.55.477-1.428 1.399-1.698 2.6-.402 1.793.22 3.987 1.83 6.181 1.608 2.194 4.607 5.705 9.91 7.205 1.709.483 3.053.157 4.09-.506a3.658 3.658 0 0 0 1.592-2.323l.18-.845a.587.587 0 0 0-.328-.656l-3.83-1.765a.587.587 0 0 0-.71.175l-1.503 1.949a.43.43 0 0 1-.484.144c-1.03-.362-4.478-1.807-6.37-5.452a.434.434 0 0 1 .054-.485l1.437-1.662a.587.587 0 0 0 .096-.614l-1.65-3.862a.587.587 0 0 0-.509-.356Z" fill="#fff"/></svg>